/vscmnt/brussel_pixiu_data/_data_brussel/112/vsc11236/PredSimResults/SUBJ04mtu3D/weighted-trackIG/worker_04.mot
version=1
nRows=5
nColumns=50
inDegrees=yes
endheader
                time	         pelvis_tilt	         pelvis_list	     pelvis_rotation	           pelvis_tx	           pelvis_ty	           pelvis_tz	       hip_flexion_r	     hip_adduction_r	      hip_rotation_r	        knee_angle_r	       ankle_angle_r	         mtp_angle_r	       hip_flexion_l	     hip_adduction_l	      hip_rotation_l	        knee_angle_l	       ankle_angle_l	         mtp_angle_l	    lumbar_extension	      lumbar_bending	     lumbar_rotation	 ercspn_r/activation	 intobl_r/activation	 extobl_r/activation	    abd_r/activation	    add_r/activation	hamstrings_r/activation	bifemsh_r/activation	glut_max_r/activation	iliopsoas_r/activation	rect_fem_r/activation	  vasti_r/activation	gastroc_r/activation	 soleus_r/activation	tib_ant_r/activation	 ercspn_l/activation	 intobl_l/activation	 extobl_l/activation	    abd_l/activation	    add_l/activation	hamstrings_l/activation	bifemsh_l/activation	glut_max_l/activation	iliopsoas_l/activation	rect_fem_l/activation	  vasti_l/activation	gastroc_l/activation	 soleus_l/activation	tib_ant_l/activation	
          2.06960809	         -6.17326075	          4.84950329	        -12.54543590	          1.86264728	          0.88170124	          0.02182453	         -7.77446205	         -4.21673693	         15.12993913	         -8.67532312	         12.20146477	         24.13711798	         25.58419641	          0.14621539	         -5.19840526	          2.25973987	          5.50429330	          0.21733521	         -2.40062416	         -1.83230128	          1.85086174	          0.03997629	          0.01000012	          0.01000019	          0.08245255	          0.01000079	          0.01921758	          0.14151359	          0.07922877	          0.33336253	          0.01000121	          0.01000024	          0.31238180	          0.29960325	          0.01512768	          0.09713937	          0.17080808	          0.02010017	          0.02312103	          0.11064180	          0.02690368	          0.01000843	          0.01000019	          0.05734938	          0.01379085	          0.01857547	          0.01000020	          0.01000014	          0.27201347	
          2.08340548	         -6.29302476	          4.72643460	        -12.44848421	          1.87797383	          0.87974937	          0.02076034	         -8.01639725	         -4.08693848	         14.34851195	         -9.98630854	         11.95230476	         25.86003844	         25.27562303	          0.41043792	         -4.11998285	          1.53894951	          5.11416202	          0.22251867	         -2.09594516	         -2.13234671	          2.10665199	          0.06622325	          0.01000014	          0.01000027	          0.06703700	          0.02774635	          0.01758874	          0.11505611	          0.06441701	          0.30723311	          0.01000144	          0.01000031	          0.28847261	          0.29272421	          0.01229938	          0.07897852	          0.16159710	          0.01634221	          0.01879834	          0.14729596	          0.02604155	          0.01000367	          0.01336326	          0.04662721	          0.01121513	          0.01510304	          0.01743113	          0.01784697	          0.27436995	
          2.09720287	         -6.39366491	          4.59539361	        -12.28037989	          1.89370653	          0.87794838	          0.01961044	         -8.19489285	         -3.93097037	         13.52170225	        -11.50639369	         11.57711854	         27.63079538	         24.83064042	          0.67668817	         -3.06580489	          0.79336750	          4.68850018	          0.21438128	         -1.77318197	         -2.44869065	          2.35127400	          0.08542290	          0.01000013	          0.01000040	          0.05450358	          0.04645767	          0.01515041	          0.09354518	          0.05237352	          0.27479239	          0.01000222	          0.01000046	          0.26238465	          0.27845638	          0.01000007	          0.06756677	          0.16806852	          0.01328687	          0.02529562	          0.11975763	          0.03193012	          0.04624437	          0.02935888	          0.03790967	          0.01000070	          0.01227949	          0.01417225	          0.01451029	          0.31484187	
          2.11100025	         -6.47647225	          4.46416456	        -12.03228893	          1.90963020	          0.87651437	          0.01835704	         -8.23829151	         -3.74522781	         12.64825668	        -13.32065310	         11.01469276	         29.44337342	         24.25684620	          0.96379653	         -2.08439971	          0.27438635	          4.12222904	          0.19957473	         -1.45351014	         -2.79019095	          2.58106243	          0.10749669	          0.01000010	          0.01000027	          0.04431344	          0.04354972	          0.01632907	          0.07605599	          0.04258166	          0.24018459	          0.01000209	          0.01000068	          0.21864080	          0.25741013	          0.01000005	          0.07122118	          0.13799906	          0.01080278	          0.05569635	          0.09737939	          0.03629310	          0.03759943	          0.04468223	          0.03082199	          0.01000077	          0.01000154	          0.01152278	          0.01179754	          0.34270399	
          2.12479764	         -6.54187108	          4.33318616	        -11.70726002	          1.92557083	          0.87562668	          0.01701642	         -8.10386808	         -3.52685786	         11.71587554	        -15.46279738	         10.21252337	         31.23972203	         23.60506703	          1.27100276	         -1.18487810	         -0.14413154	          3.62607887	          0.18290366	         -1.15027141	         -3.15649723	          2.79216319	          0.12577587	          0.01000010	          0.01000031	          0.03602847	          0.05077662	          0.02116128	          0.06183676	          0.03462049	          0.21705571	          0.01000120	          0.01000045	          0.17776307	          0.22026802	          0.01000005	          0.06592230	          0.11219857	          0.01000018	          0.07863153	          0.08717286	          0.04120191	          0.03057058	          0.04974096	          0.02505944	          0.01000070	          0.02261992	          0.01000076	          0.01000050	          0.36769992	
